<svg width="598" height="611" viewBox="0 0 598 611" fill="none" xmlns="http://www.w3.org/2000/svg">
<path fill-rule="evenodd" clip-rule="evenodd" d="M266.081 5.00907C338.117 -15.7027 418.622 31.0724 470.13 85.5257C518.062 136.2 506.678 214.862 527.539 281.422C548.077 346.953 618.189 408.857 591.265 472.033C563.934 536.163 473.392 537.484 408.054 561.783C361.501 579.096 315.422 587.283 266.081 592.968C209.062 599.538 148.357 625.332 98.1659 597.49C46.6066 568.889 22.7925 507.271 8.48197 450.074C-5.11643 395.722 -3.2068 337.363 20.3677 286.538C42.357 239.13 98.1875 221.959 132.551 182.586C182.471 125.39 193.119 25.9871 266.081 5.00907Z" fill="#DBD2F1" fill-opacity="0.1"/>
</svg>
