<svg width="595" height="620" viewBox="0 0 595 620" fill="none" xmlns="http://www.w3.org/2000/svg">
<path fill-rule="evenodd" clip-rule="evenodd" d="M326.729 0.542139C389.13 -1.2594 442.521 43.8774 487.692 86.9669C528.252 125.658 549.293 177.268 567.549 230.266C586.151 284.267 598.121 338.367 593.911 395.326C588.529 468.152 599.674 559.962 540.064 602.144C480.354 644.396 398.425 598.888 326.729 584.391C270.205 572.962 218.791 554.316 168.045 526.923C108.755 494.919 31.4426 475.226 7.69032 412.175C-16.1527 348.884 20.9074 279.281 52.1573 219.3C79.3378 167.129 126.371 132.726 172.38 96.0701C220.89 57.4209 264.73 2.33206 326.729 0.542139Z" fill="white" fill-opacity="0.8"/>
</svg>
