<svg width="1440" height="253" viewBox="0 0 1440 253" fill="none" xmlns="http://www.w3.org/2000/svg">
<path fill-rule="evenodd" clip-rule="evenodd" d="M0 166.404L60 137.404C120 108.404 240 50.4044 360 50.4044C480 50.4044 600 108.404 720 94.4044C840 79.4044 960 -6.59563 1080 0.40437C1200 7.40437 1320 108.404 1380 158.404L1440 209.404V252.404H1380C1320 252.404 1200 252.404 1080 252.404C960 252.404 840 252.404 720 252.404C600 252.404 480 252.404 360 252.404C240 252.404 120 252.404 60 252.404H0V166.404Z" fill="#DBD2F1" fill-opacity="0.2"/>
</svg>
